<svg xmlns="http://www.w3.org/2000/svg" width="760" height="680" viewBox="0 0 760 680"><title>Prepared half-cell end fixture, actual initial polygons</title><rect width="760" height="680" fill="#ffffff"/><text x="30" y="32" font-family="sans-serif" font-size="21">Half-cell end: actual prepared polygon geometry</text><text x="30" y="60" font-family="sans-serif" font-size="15">P/Q caps · A rail neighbors · W rim stubs · E fuel</text><polygon points="425,306.0000000000001 595,306.0000000000001 595,476.0000000000001 425,476.0000000000001" fill="#cfe2f3" stroke="#253345" stroke-width="2"/><text x="510" y="396.0000000000001" text-anchor="middle" font-family="sans-serif" font-size="18">A</text>
<polygon points="595,306.0000000000001 425,306.0000000000001 425,136.0000000000001 595,136.0000000000001" fill="#cfe2f3" stroke="#253345" stroke-width="2"/><text x="510" y="226.0000000000001" text-anchor="middle" font-family="sans-serif" font-size="18">A</text>
<polygon points="340,476.0000000000001 425,476.0000000000001 425,561.0000000000001 340,561.0000000000001" fill="#f4e6af" stroke="#253345" stroke-width="2"/><text x="382.5" y="523.5000000000001" text-anchor="middle" font-family="sans-serif" font-size="18">E</text>
<polygon points="425,136.0000000000001 340,136.0000000000001 340,51.00000000000012 425,51.00000000000012" fill="#f4e6af" stroke="#253345" stroke-width="2"/><text x="382.5" y="98.50000000000011" text-anchor="middle" font-family="sans-serif" font-size="18">E</text>
<polygon points="255,433.5000000000001 340,476.0000000000001 301.98684438250336,552.0263112349927 216.9868443825034,509.5263112349927" fill="#d3e9dc" stroke="#253345" stroke-width="2"/><text x="278.4934221912517" y="497.7631556174964" text-anchor="middle" font-family="sans-serif" font-size="18">W</text>
<polygon points="340,136.0000000000001 255,178.5000000000001 216.9868443825034,102.47368876500751 301.98684438250336,59.97368876500751" fill="#d3e9dc" stroke="#253345" stroke-width="2"/><text x="278.4934221912517" y="124.23684438250382" text-anchor="middle" font-family="sans-serif" font-size="18">W</text>
<polygon points="255,306.0000000000001 425,306.0000000000001 425,476.0000000000001 340,476.0000000000001 255,433.5000000000001" fill="#cfe2f3" stroke="#253345" stroke-width="2"/><text x="340" y="404.5000000000002" text-anchor="middle" font-family="sans-serif" font-size="18">P</text>
<polygon points="425,306.0000000000001 255,306.0000000000001 255,178.5000000000001 340,136.0000000000001 425,136.0000000000001" fill="#cfe2f3" stroke="#253345" stroke-width="2"/><text x="340" y="217.5" text-anchor="middle" font-family="sans-serif" font-size="18">Q</text><text x="30" y="630" font-family="sans-serif" font-size="15">Prepared contacts only; no arc growth or autonomous copying tested.</text></svg>
